<svg width="1108" height="194" viewBox="0 0 1108 194" fill="none" xmlns="http://www.w3.org/2000/svg">
<path d="M0.583984 122.942V71.4614C0.583984 65.7738 6.67293 62.2173 11.5314 65.0611L55.5822 90.8501C60.4407 93.7004 60.4407 100.826 55.5822 103.67L11.5314 129.355C6.67293 132.18 0.583984 128.63 0.583984 122.942Z" fill="#FDEECF"/>
<path d="M21.3783 34.5046L74.4327 3.46193C82.012 -0.96255 91.3405 -0.96255 98.9198 3.46193L151.975 34.5046C156.834 37.3484 156.834 44.4742 151.975 47.3181L99.5674 77.985C91.5995 82.6427 81.8178 82.6427 73.7851 77.985L21.3783 47.3181C16.5197 44.4742 16.5197 37.3484 21.3783 34.5046Z" fill="#FDEECF"/>
<path d="M21.638 146.956L86.6766 109.04L161.886 65.0612C166.745 62.2174 172.834 65.7674 172.834 71.4615V133.145C172.834 141.994 168.17 150.176 160.591 154.6L98.9202 190.67C91.3409 195.114 82.0124 195.114 74.4331 190.67L21.638 159.77C16.7795 156.913 16.7795 149.781 21.638 146.956Z" fill="#FDEECF"/>
<path d="M326.426 43.5477H351.108V152.378H326.426V106.825H283.153V152.378H258.602V43.5477H283.153V85.8362H326.426V43.5477ZM441.865 111.178C441.865 114.599 441.735 117.449 441.54 119.729H385.247C387.579 129.679 393.668 134.654 403.644 134.654C412.001 134.654 417.118 131.286 418.867 124.549L440.31 130.301C438.043 137.66 433.572 143.413 426.965 147.559C420.292 151.601 412.325 153.622 402.997 153.622C390.364 153.622 380.453 149.58 373.327 141.495C366.266 133.307 362.703 123.875 362.703 113.199C362.703 106.358 363.999 99.9841 366.59 94.0762C369.181 88.1683 373.522 83.1413 379.546 78.9954C385.636 74.8495 393.02 72.7766 401.571 72.7766C408.308 72.7766 414.333 73.9685 419.645 76.3524C425.021 78.6327 429.297 81.6902 432.406 85.5252C435.516 89.3602 437.848 93.4543 439.403 97.8075C441.022 102.161 441.865 106.618 441.865 111.178ZM385.57 103.56H417.442C417.054 99.4141 415.499 96.0973 412.778 93.6097C410.187 91.0185 406.494 89.723 401.571 89.723C393.085 89.723 387.773 94.3353 385.57 103.56ZM485.591 153.622C474.19 153.622 465.185 149.994 458.513 142.739C452.035 135.38 448.731 125.533 448.731 113.199C448.731 100.865 452.035 91.0704 458.513 83.815C465.055 76.456 473.995 72.7766 485.267 72.7766C494.595 72.7766 501.656 75.6787 506.45 81.4829V42.304H529.253V152.378H506.45V144.605C502.045 150.616 495.114 153.622 485.591 153.622ZM489.348 134.188C494.919 134.188 499.389 132.271 502.692 128.436C506.126 124.601 507.81 119.522 507.81 113.199C507.81 106.877 506.126 101.798 502.692 97.963C499.389 94.1281 494.919 92.2106 489.348 92.2106C483.842 92.2106 479.372 94.1281 475.939 97.963C472.635 101.798 470.951 106.877 470.951 113.199C470.951 119.522 472.635 124.601 475.939 128.436C479.372 132.271 483.842 134.188 489.348 134.188ZM596.041 74.0203H618.584V146.781C618.584 157.25 614.892 165.697 607.572 172.123C600.187 178.653 590.47 181.918 578.485 181.918C569.222 181.918 561.189 179.638 554.387 175.077C547.65 170.517 543.569 164.557 542.274 157.198L563.068 153.933C563.586 157.042 565.335 159.478 568.186 161.24C571.101 163.106 574.534 164.039 578.485 164.039C583.733 164.039 588.008 162.639 591.247 159.841C594.551 157.146 596.17 153.622 596.17 149.269V141.806C591.96 147.196 585.222 149.891 575.959 149.891C564.882 149.891 556.136 146.418 549.723 139.474C543.309 132.53 540.071 123.149 540.071 111.334C540.071 99.5177 543.245 90.1376 549.529 83.1932C556.007 76.2488 564.623 72.7766 575.506 72.7766C584.64 72.7766 591.506 75.4196 596.041 80.7056V74.0203ZM579.716 130.457C585.093 130.457 589.369 128.746 592.478 125.326C595.652 121.802 597.272 117.138 597.272 111.334C597.272 105.529 595.652 100.917 592.478 97.4966C589.369 93.9725 585.093 92.2106 579.716 92.2106C574.404 92.2106 570.193 93.9725 566.954 97.4966C563.845 100.917 562.29 105.529 562.29 111.334C562.29 117.138 563.845 121.802 566.954 125.326C570.193 128.746 574.404 130.457 579.716 130.457ZM708.564 111.178C708.564 114.599 708.434 117.449 708.24 119.729H651.946C654.278 129.679 660.367 134.654 670.343 134.654C678.7 134.654 683.818 131.286 685.567 124.549L707.009 130.301C704.742 137.66 700.272 143.413 693.665 147.559C686.992 151.601 679.024 153.622 669.695 153.622C657.063 153.622 647.152 149.58 640.026 141.495C632.965 133.307 629.402 123.875 629.402 113.199C629.402 106.358 630.698 99.9841 633.289 94.0762C635.88 88.1683 640.221 83.1413 646.245 78.9954C652.334 74.8495 659.72 72.7766 668.271 72.7766C675.008 72.7766 681.032 73.9685 686.344 76.3524C691.721 78.6327 695.996 81.6902 699.106 85.5252C702.215 89.3602 704.547 93.4543 706.102 97.8075C707.721 102.161 708.564 106.618 708.564 111.178ZM652.27 103.56H684.141C683.753 99.4141 682.198 96.0973 679.477 93.6097C676.886 91.0185 673.194 89.723 668.271 89.723C659.784 89.723 654.473 94.3353 652.27 103.56ZM719.317 152.378V74.0203H742.185V84.5924C747.238 76.7151 754.622 72.7766 764.274 72.7766C775.999 72.7766 783.838 77.4406 787.919 86.769C790.186 82.7267 793.62 79.41 798.284 76.8188C802.948 74.1239 808.325 72.7766 814.35 72.7766C822.706 72.7766 829.508 75.2641 834.69 80.2392C839.872 85.2143 842.464 91.485 842.464 99.0513V152.378H819.791V105.737C819.791 101.383 818.625 98.0149 816.358 95.6309C814.155 93.1434 811.046 91.8996 807.03 91.8996C802.365 91.8996 798.672 93.7134 795.952 97.3411C793.361 100.969 792.065 105.944 792.065 112.266V152.378H769.522V105.737C769.522 101.487 768.42 98.1185 766.153 95.6309C763.951 93.1434 760.906 91.8996 756.954 91.8996C752.29 91.8996 748.663 93.7652 746.071 97.4966C743.48 101.124 742.185 106.048 742.185 112.266V152.378H719.317ZM894.612 153.622C882.433 153.622 872.522 149.839 864.748 142.273C857.039 134.603 853.218 124.911 853.218 113.199C853.218 101.487 857.039 91.8478 864.748 84.2815C872.522 76.6115 882.433 72.7766 894.612 72.7766C906.531 72.7766 916.378 76.6115 924.152 84.2815C931.99 91.8478 935.941 101.487 935.941 113.199C935.941 124.911 931.99 134.603 924.152 142.273C916.378 149.839 906.531 153.622 894.612 153.622ZM894.612 134.188C900.053 134.188 904.523 132.271 907.957 128.436C911.39 124.497 913.075 119.418 913.075 113.199C913.075 106.98 911.39 101.953 907.957 98.1184C904.523 94.1798 900.053 92.2106 894.612 92.2106C888.976 92.2106 884.506 94.1798 881.073 98.1184C877.639 101.953 875.956 106.98 875.956 113.199C875.956 119.418 877.639 124.497 881.073 128.436C884.506 132.271 888.976 134.188 894.612 134.188ZM946.5 152.378V74.0203H969.303V84.4369C974.615 76.6633 982.584 72.7766 993.272 72.7766C1001.89 72.7766 1008.82 75.3677 1014.13 80.5501C1019.38 85.7325 1022.03 92.6251 1022.03 101.228V152.378H999.361V107.291C999.361 103.042 998.066 99.6213 995.604 97.0301C993.207 94.3353 989.968 92.9879 985.822 92.9879C974.81 92.9879 969.303 101.332 969.303 118.019V152.378H946.5ZM1084.09 74.0203H1107.41L1066.08 180.674H1042.76L1055.2 148.491L1025.01 74.0203H1049.76L1066.54 119.418L1084.09 74.0203Z" fill="#FDEECF"/>
</svg>
